<svg xmlns="http://www.w3.org/2000/svg" width="31.37" height="22.128" viewBox="0 0 31.37 22.128">
  <g id="Group_4375" data-name="Group 4375" transform="translate(-135.679 -486.735)">
    <path id="Path_3006" data-name="Path 3006" d="M166.289,487.389c-.236.406-.47.814-.708,1.218-2.289,3.884-4.594,7.758-7.111,11.5a20.267,20.267,0,0,1-7.454,6.776,15.3,15.3,0,0,1-7.776,1.968,7.765,7.765,0,0,1-7.455-6.391,8.553,8.553,0,0,1,.554-4.548,18.518,18.518,0,0,1,7.364-9.305,11.182,11.182,0,0,1,8-1.727,6.529,6.529,0,0,1,5.11,3.59,1.067,1.067,0,0,1-.134,1.365c-.956,1.13-1.837,2.323-2.792,3.546-.059-.161-.1-.274-.14-.387a21.771,21.771,0,0,0-2.012-4.376c-.091-.145-.188-.287-.291-.425a2.152,2.152,0,0,0-2.547-.883,6.768,6.768,0,0,0-3.477,2.27,23.663,23.663,0,0,0-4,7.267,8.192,8.192,0,0,0-.152,4.949,2.635,2.635,0,0,0,3,2.138,6.7,6.7,0,0,0,1.753-.5,11.188,11.188,0,0,0,3.564-2.714,37.466,37.466,0,0,0,3.987-5.095c2.243-3.343,4.453-6.708,6.669-10.069a.562.562,0,0,1,.539-.3c1.826.013,3.651.007,5.477.007Z" transform="translate(0 0)" fill="#1875f0"/>
    <path id="Path_3007" data-name="Path 3007" d="M462.1,690.518c.294.879.56,1.75.877,2.6a15.492,15.492,0,0,0,.813,1.854,3.47,3.47,0,0,0,3.8,1.87,7.675,7.675,0,0,0,.884-.171c.273-.077.531-.2.795-.306a1.345,1.345,0,0,1-.52,1.454,6.023,6.023,0,0,1-4.654,1.459,8.156,8.156,0,0,1-2.7-.671,3.372,3.372,0,0,1-1.852-1.913c-.249-.685-.511-1.365-.755-2.052a.341.341,0,0,1,.044-.282q1.586-1.908,3.189-3.8C462.029,690.546,462.053,690.542,462.1,690.518Z" transform="translate(-302.263 -190.646)" fill="#1875f0"/>
  </g>
</svg>
