<svg xmlns="http://www.w3.org/2000/svg" width="28.2" height="36" viewBox="0 0 28.2 36">
  <g id="file" transform="translate(-6.5)">
    <path id="Path_846" data-name="Path 846" d="M32.1,22h-15a.6.6,0,0,0,0,1.2h15a.6.6,0,0,0,0-1.2Z" transform="translate(-4 -8.8)" fill="#1875f0"/>
    <path id="Path_847" data-name="Path 847" d="M17.1,15.2h6a.6.6,0,0,0,0-1.2h-6a.6.6,0,1,0,0,1.2Z" transform="translate(-4 -5.6)" fill="#1875f0"/>
    <path id="Path_848" data-name="Path 848" d="M32.1,30h-15a.6.6,0,0,0,0,1.2h15a.6.6,0,0,0,0-1.2Z" transform="translate(-4 -12)" fill="#1875f0"/>
    <path id="Path_849" data-name="Path 849" d="M32.1,38h-15a.6.6,0,1,0,0,1.2h15a.6.6,0,0,0,0-1.2Z" transform="translate(-4 -15.2)" fill="#1875f0"/>
    <path id="Path_850" data-name="Path 850" d="M32.1,46h-15a.6.6,0,1,0,0,1.2h15a.6.6,0,0,0,0-1.2Z" transform="translate(-4 -18.4)" fill="#1875f0"/>
    <path id="Path_851" data-name="Path 851" d="M25.948,0H6.5V36H34.7V8.752ZM26.3,2.048,32.652,8.4H26.3ZM7.7,34.8V1.2H25.1V9.6h8.4V34.8Z" fill="#1875f0"/>
  </g>
</svg>
