<svg xmlns="http://www.w3.org/2000/svg" width="213.699" height="60.41" viewBox="0 0 213.699 60.41">
  <g id="Group_2893" data-name="Group 2893" transform="translate(8137 5610.165)">
    <path id="Path_207" data-name="Path 207" d="M4344.365,722.341h-4.374c-.009-.1-.021-.184-.021-.265.011-2.175.01-4.349.045-6.523a16.323,16.323,0,0,1,.205-1.787c.059-.473.127-.945.188-1.417a1.332,1.332,0,0,0,0-.2c-.149-.011-.164.1-.2.178-.22.444-.448.885-.65,1.337a37.457,37.457,0,0,1-2.338,4.225q-1.292,2.111-2.556,4.237a.474.474,0,0,1-.475.263c-1.153-.011-2.31-.005-3.464-.005h-.276c-.067-.217-.094-16.88-.032-17.416h4.351c.006.086.02.169.02.252,0,2.479.01,4.959-.008,7.439a12.479,12.479,0,0,1-.177,1.476c-.049.378-.1.755-.154,1.133a.292.292,0,0,0,.042.184,1.535,1.535,0,0,0,.109-.168c.253-.544.514-1.085.755-1.635a22.1,22.1,0,0,1,1.328-2.531q1.786-2.964,3.537-5.949a.427.427,0,0,1,.426-.243c1.241.012,2.48.008,3.721.009Z" transform="translate(-12267.666 -6282.583)" fill="#3f4953"/>
    <path id="Path_201" data-name="Path 201" d="M2241.21,705.245h.357c1.536,0,3.072,0,4.607-.005a.481.481,0,0,1,.462.245q1.956,2.976,3.931,5.941c.055.083.114.164.17.246l.057-.021V705.3c.23-.062,3.991-.078,4.4-.021v6.377l.072.022,4.26-6.421h5.185a.231.231,0,0,1,.014.03c0,.008,0,.021,0,.026l-6.115,8.5,6.127,8.846c-.127.01-.208.022-.288.022-1.622,0-3.243,0-4.865.006a.411.411,0,0,1-.4-.241q-1.808-3.035-3.626-6.064c-.054-.089-.108-.177-.171-.279a.288.288,0,0,0-.18.277V722.6c-.233.059-4.033.073-4.395.015v-.327q0-2.89-.005-5.78c0-.149.024-.309-.171-.4-.057.087-.115.171-.168.258q-1.809,3-3.613,6.005a.5.5,0,0,1-.491.287c-1.583-.013-3.167-.006-4.75-.006h-.276c-.012-.025-.017-.033-.021-.042s-.008-.021,0-.026q3.029-4.393,6.074-8.8Z" transform="translate(-10274.847 -6282.879)" fill="#3f4953"/>
    <path id="Path_203" data-name="Path 203" d="M3156.321,715.466c.042-.081.088-.159.126-.242.168-.363.346-.723.5-1.092a29.182,29.182,0,0,1,2.023-3.809c1.03-1.707,2.042-3.423,3.054-5.139a.427.427,0,0,1,.427-.245c1.134.01,2.27.005,3.405.005h.3V722.3c-.2.061-3.817.085-4.355.026-.007-.077-.02-.159-.019-.24.007-2.175.006-4.349.032-6.524a12.548,12.548,0,0,1,.17-1.447c.08-.6.166-1.209.248-1.813a.82.82,0,0,0-.008-.138c-.161-.017-.175.112-.216.2-.246.5-.5.988-.725,1.491a33.253,33.253,0,0,1-1.953,3.557q-1.448,2.366-2.865,4.75a.431.431,0,0,1-.427.246c-1.174-.011-2.347-.005-3.521-.005h-.27c-.071-.271-.071-17.163,0-17.422h4.323c.006.105.016.2.016.29,0,2.48.009,4.96-.006,7.44a11.152,11.152,0,0,1-.153,1.333c-.057.434-.122.868-.181,1.3a.464.464,0,0,0,.01.107Z" transform="translate(-11143.816 -6282.592)" fill="#3f4953"/>
    <path id="Path_204" data-name="Path 204" d="M3526.322,713.429a10.474,10.474,0,0,1,.98.725,4.345,4.345,0,0,1,1.408,4.059,6.613,6.613,0,0,1-.289,1.163,4.521,4.521,0,0,1-2.837,2.866,8.089,8.089,0,0,1-2.835.468q-3.475,0-6.953,0c-.083,0-.167-.009-.267-.015V705.332a2.072,2.072,0,0,1,.216-.022c2.27,0,4.541-.009,6.81,0a6.126,6.126,0,0,1,3.1.789,4.608,4.608,0,0,1,2.345,3.6,4.031,4.031,0,0,1-.056,1.533,3.506,3.506,0,0,1-1.39,2.034Zm-6.4,5.423c.082.006.129.013.175.013.792,0,1.583,0,2.373,0a2.6,2.6,0,0,0,.509-.056,1.758,1.758,0,0,0,.166-3.4,2.845,2.845,0,0,0-.759-.107c-.734-.014-1.467-.006-2.2,0-.083,0-.167.01-.263.016Zm.018-9.836a27.768,27.768,0,0,0,.014,3.085.38.38,0,0,0,.08.016c.83,0,1.66.007,2.491,0a1.386,1.386,0,0,0,.928-.39,1.56,1.56,0,0,0,.416-1.7,1.537,1.537,0,0,0-1.43-1.006c-.658-.008-1.315,0-1.973,0Z" transform="translate(-11490.395 -6282.943)" fill="#3f4953"/>
    <path id="Path_200" data-name="Path 200" d="M1644.1,713.446c.092.056.158.1.224.133a4.429,4.429,0,0,1,2.2,4.575,6.058,6.058,0,0,1-.578,1.876,4.62,4.62,0,0,1-2.88,2.321,8.594,8.594,0,0,1-2.567.357h-6.866c-.092,0-.184-.009-.294-.015V705.323c.092-.006.176-.017.259-.017,2.241,0,4.482-.007,6.724,0a6.283,6.283,0,0,1,2.9.657,4.644,4.644,0,0,1,2.611,3.874,3.836,3.836,0,0,1-.109,1.529,3.5,3.5,0,0,1-1.357,1.891C1644.291,713.314,1644.213,713.368,1644.1,713.446Zm-6.4,5.4c.083.006.129.013.176.013.8,0,1.6,0,2.4,0a2.606,2.606,0,0,0,.51-.058,1.762,1.762,0,0,0,.113-3.423,2.872,2.872,0,0,0-.706-.09c-.743-.011-1.487,0-2.23,0-.084,0-.167.01-.262.016Zm0-6.748c.088.006.162.015.236.015.763,0,1.526.006,2.289,0a1.55,1.55,0,0,0,.008-3.1c-.784-.009-1.564,0-2.346,0a1.321,1.321,0,0,0-.187.029Z" transform="translate(-9695.011 -6282.939)" fill="#3f4953"/>
    <path id="Path_202" data-name="Path 202" d="M1976.7,718.937v4.123H1964.68V705.69H1976.7v4.1h-7.564a18.5,18.5,0,0,0-.009,2.729h6.9c.062.231.077,3.395.02,3.794H1969.1v2.629Z" transform="translate(-10011.069 -6283.308)" fill="#3f4953"/>
    <path id="Path_205" data-name="Path 205" d="M3846.87,722.624V705.269c.209-.059,3.933-.077,4.384-.02v5.911h2.792a8.89,8.89,0,0,1,2.817.411,4.247,4.247,0,0,1,2.616,2.163,5.477,5.477,0,0,1,.514,1.807,7.261,7.261,0,0,1-.174,2.922,5.384,5.384,0,0,1-4.414,4.024,7.426,7.426,0,0,1-1.42.13c-2.26.013-4.52.006-6.779.006Zm4.391-3.861h2.467a3.921,3.921,0,0,0,.428-.026,1.615,1.615,0,0,0,1.5-1.31,4.459,4.459,0,0,0,.113-1.076,1.774,1.774,0,0,0-1.791-1.745q-1.215,0-2.431.006h-.292Z" transform="translate(-11806.453 -6282.855)" fill="#3f4953"/>
    <path id="Path_206" data-name="Path 206" d="M4181.611,722.45h-4.332V705.109c.216-.058,3.684-.082,4.28-.03.009.006.015.012.023.018s.014.015.014.022q.009,8.524.015,17.048Z" transform="translate(-12121.624 -6282.699)" fill="#3f4953"/>
    <path id="Path_208" data-name="Path 208" d="M4384.17,582h3.371a1.06,1.06,0,0,0,2.1,0h3.325a1.686,1.686,0,0,1-.014.706,4.024,4.024,0,0,1-3.488,3.472,4.832,4.832,0,0,1-3.112-.461,3.872,3.872,0,0,1-2.135-3.12C4384.2,582.415,4384.188,582.225,4384.17,582Z" transform="translate(-12318.975 -6165.323)" fill="#3f4953"/>
    <g id="Group_1183" data-name="Group 1183" transform="translate(-8061.678 -5577.613)">
      <path id="Path_121" data-name="Path 121" d="M2772.54,705.79v17.333c-.207.061-3.938.081-4.376.021V709.98h-3.187a1.116,1.116,0,0,0-.04.187c-.064,1.153-.118,2.306-.191,3.459-.062.969-.107,1.944-.228,2.908a9.229,9.229,0,0,1-1.466,4.14,5.536,5.536,0,0,1-4.124,2.486c-.528.059-1.065.037-1.6.046a2.189,2.189,0,0,1-.29-.035v-4.058c.256-.021.5-.035.744-.063a2.362,2.362,0,0,0,1.844-1.2,4.855,4.855,0,0,0,.6-1.836c.1-.738.176-1.476.23-2.218.1-1.417.184-2.836.277-4.254.077-1.161.161-2.321.243-3.482,0-.084.016-.168.026-.27Z" transform="translate(-2705.209 -705.79)" fill="#3f4953"/>
      <g id="Group_1176" data-name="Group 1176" transform="translate(0 21.701)">
        <path id="Path_122" data-name="Path 122" d="M2895.771,1243.219c-.124,0-.248,0-.371,0h-83.65v-.525a1.235,1.235,0,0,1,.166-.026c.115,0,.231,0,.343,0h83.058c.152,0,.3-.015.455-.023Z" transform="translate(-2757.396 -1239.591)" fill="#3f4953"/>
        <g id="Group_1076" data-name="Group 1076">
          <path id="Path_92" data-name="Path 92" d="M2127.406,1178.461l-2.966,4.432c-.053.08-.1.16-.162.236a.454.454,0,0,1-.415.2c-.158-.01-.318,0-.493,0v-5.991a2.93,2.93,0,0,1,.723-.028l.029.032c.006.007.015.013.017.021a.332.332,0,0,1,.014.084q0,2.217,0,4.433v.354c.05-.074.084-.121.114-.171.092-.156.174-.318.276-.468q1.287-1.925,2.58-3.847c.323-.483.447-.531,1.063-.4v5.96h-.764c-.036-.308-.01-.629-.015-.948s0-.648,0-.972v-2.925Z" transform="translate(-2100.763 -1177.243)" fill="#3f4953"/>
          <path id="Path_93" data-name="Path 93" d="M1975.929,1179.423c-.039.273-.055.551-.118.817a2.711,2.711,0,0,1-2.405,2.2,2.833,2.833,0,0,1-3.024-1.437,3.16,3.16,0,0,1-.345-1.172,3.45,3.45,0,0,1,.323-1.975,2.6,2.6,0,0,1,1.689-1.395,3.125,3.125,0,0,1,2.208.143,2.845,2.845,0,0,1,1.641,2.5c0,.1,0,.21,0,.315Zm-2.979-2.4a1.969,1.969,0,0,0-2.041,1.641,3.454,3.454,0,0,0-.037,1.306,2.1,2.1,0,0,0,4.088.346,3.159,3.159,0,0,0,.03-1.722A1.957,1.957,0,0,0,1972.95,1177.021Z" transform="translate(-1954.477 -1176.325)" fill="#3f4953"/>
          <path id="Path_94" data-name="Path 94" d="M2458.29,1178.12h3.5v6c-.123,0-.242.008-.362.01s-.247,0-.408,0c-.027-.3-.01-.594-.014-.885s0-.591,0-.887v-3.6c-.667-.029-1.31-.011-1.982-.011-.024.313-.05.613-.07.914a16.777,16.777,0,0,1-.349,2.6,4.521,4.521,0,0,1-.411,1.153,1.349,1.349,0,0,1-1.415.761c-.261-.025-.288-.056-.292-.316v-.332a2.517,2.517,0,0,1,.268-.019.776.776,0,0,0,.712-.4,3.642,3.642,0,0,0,.454-1.256,16.984,16.984,0,0,0,.289-2.469c.023-.369.038-.743.058-1.114A1.142,1.142,0,0,1,2458.29,1178.12Z" transform="translate(-2418.519 -1178.038)" fill="#3f4953"/>
          <path id="Path_95" data-name="Path 95" d="M1870.478,1181.573v2.235h-.778v-5.97a.289.289,0,0,1,.084-.029c.657,0,1.315-.005,1.972.009a2.592,2.592,0,0,1,.617.1,1.674,1.674,0,0,1,1.288,1.871,1.806,1.806,0,0,1-1.731,1.738c-.358.041-.722.03-1.084.041C1870.734,1181.576,1870.622,1181.573,1870.478,1181.573Zm-.008-.667a10.492,10.492,0,0,0,1.323-.009,1.232,1.232,0,0,0,.925-1.856,1.281,1.281,0,0,0-1.125-.605c-.315,0-.629,0-.944.005a1.254,1.254,0,0,0-.18.027Z" transform="translate(-1858.793 -1177.74)" fill="#3f4953"/>
          <path id="Path_96" data-name="Path 96" d="M2605.42,1183.657v-5.979a2.693,2.693,0,0,1,.77-.021c.026.289.009.572.011.854s0,.553,0,.83v.889l.353.01c.485.017.973.01,1.454.063a2.3,2.3,0,0,1,.75.256,1.26,1.26,0,0,1,.665.918,1.7,1.7,0,0,1-1.5,2.124,4.345,4.345,0,0,1-.654.053c-.515.007-1.03,0-1.545,0Zm.8-.621c.4,0,.761.005,1.123,0a2.765,2.765,0,0,0,.507-.056.977.977,0,0,0,.828-1.07.906.906,0,0,0-.874-.983c-.508-.052-1.026-.029-1.539-.037-.014,0-.027.023-.045.04Z" transform="translate(-2560.581 -1177.581)" fill="#3f4953"/>
          <path id="Path_97" data-name="Path 97" d="M2369.9,1178.71v2.023h2.3v.62H2369.9c-.049.7-.009,1.37-.024,2.071.125.006.226.016.327.017h2.231c.1,0,.2.01.32.016v.587c-.2.062-3.236.079-3.612.022-.056-.225-.063-5.673,0-5.976h3.608v.619Z" transform="translate(-2335.161 -1178.008)" fill="#3f4953"/>
          <path id="Path_98" data-name="Path 98" d="M1638.046,1177.187c-.326.578-.343.541-.773.264a2.183,2.183,0,0,0-1.649-.288,1.89,1.89,0,0,0-1.438,1.3,3.029,3.029,0,0,0,.013,2.182,1.941,1.941,0,0,0,1.855,1.279,2.035,2.035,0,0,0,1.548-.534c.13-.128.184-.117.312.01.087.087.167.185.26.286a2.072,2.072,0,0,1-.622.54,3.094,3.094,0,0,1-3.338-.246,2.473,2.473,0,0,1-.692-.933,3.628,3.628,0,0,1-.083-2.813,2.643,2.643,0,0,1,2.411-1.772,2.77,2.77,0,0,1,1.944.521C1637.879,1177.043,1637.956,1177.113,1638.046,1177.187Z" transform="translate(-1633.195 -1176.443)" fill="#3f4953"/>
          <path id="Path_99" data-name="Path 99" d="M2251.059,1178.271v5.336h-.788c-.015-.34,0-.689-.007-1.037s0-.705,0-1.061v-3.228h-1.925v-.623c.2-.067,4.348-.079,4.646-.008v.619Z" transform="translate(-2219.969 -1177.544)" fill="#3f4953"/>
          <path id="Path_100" data-name="Path 100" d="M1750.759,1178.31h-1.919v-.622c.212-.062,4.3-.074,4.63-.013v.626c-.312,0-.622.008-.931.009s-.625,0-.977,0c-.01.614,0,1.2,0,1.787s0,1.163,0,1.744v1.8h-.788c0-.282-.008-.573-.01-.863s0-.591,0-.886v-3.578Z" transform="translate(-1743.506 -1177.575)" fill="#3f4953"/>
        </g>
      </g>
    </g>
    <g id="Group_2892" data-name="Group 2892">
      <g id="Group_1182" data-name="Group 1182" transform="translate(-8137 -5610.165)">
        <path id="Path_101" data-name="Path 101" d="M5.408,26.657a2.457,2.457,0,0,0,.27.03q1.245,0,2.49,0a.6.6,0,0,0,.457-.184c1.329-1.316,2.666-2.622,3.993-3.94,1-1,1.983-2.009,2.985-3q6.52-6.5,13.047-12.982,1.593-1.584,3.182-3.171c.079-.079.164-.152.269-.25L48.308,19.168c.084-.1.153-.174.21-.256,1.239-1.789,2.4-3.629,3.453-5.531.482-.867.936-1.748,1.4-2.623.035-.065.073-.127.129-.224.071.138.125.249.181.358a64.55,64.55,0,0,0,5.42,8.979,28.96,28.96,0,0,0,3.005,3.562c.373.369.773.709,1.159,1.064.054.049.105.1.2.187-.291.065-.537.122-.784.176a10.706,10.706,0,0,1-2.242.24,5.481,5.481,0,0,1-2.1-.345,2.056,2.056,0,0,0-.261-.063c.068.124.1.2.149.267A36.07,36.07,0,0,0,62.9,30.546,11.673,11.673,0,0,0,66,32.764a5.883,5.883,0,0,1-1.245-.034c-.4-.024-.8-.064-1.2-.108s-.814-.1-1.218-.16-.807-.138-1.206-.231-.778-.19-1.159-.311-.761-.273-1.172-.369a1.515,1.515,0,0,0,.118.177,59.56,59.56,0,0,0,6.994,6.831,13.122,13.122,0,0,0,2.669,1.734c-.06.129-.184.145-.277.188a24.659,24.659,0,0,1-3.193,1.166,22.248,22.248,0,0,1-3.548.743,17.342,17.342,0,0,1-3.511.082,12.225,12.225,0,0,1-3.817-.92c-.209-.089-.415-.184-.646-.291a.875.875,0,0,0-.067.19c-.01.114-.006.231-.006.343V60.232c-.113.014-.184.028-.26.031-.1,0-.19,0-.286,0H4.63c-.528,0-.51.075-.51-.507V35.37c0-.533-.019-.507.493-.507h5.524c.309.005.318.012.318.326v16.1a38.839,38.839,0,0,0,4.557.012,1.839,1.839,0,0,1-.1-.456,2.114,2.114,0,0,1,.133-.487c-.1,0-.175-.006-.246,0a.621.621,0,0,1-.627-.317,4.115,4.115,0,0,1-.313-.61.54.54,0,0,1,.073-.59c.144-.175.12-.216-.112-.256a.737.737,0,0,1-.64-.572c-.042-.156-.078-.315-.126-.469a.482.482,0,0,1,.211-.594c.17-.119.162-.2-.029-.262A.8.8,0,0,1,12.661,46a1.77,1.77,0,0,0-.046-.194.614.614,0,0,1,.306-.8c.153-.082.124-.205-.033-.3a1.254,1.254,0,0,1-.363-.262.7.7,0,0,1-.133-.392,4.668,4.668,0,0,1,.056-.711.528.528,0,0,1,.342-.426c.06-.027.129-.039.184-.07.086-.046.089-.117.03-.19a.242.242,0,0,0-.067-.052.68.68,0,0,1-.3-.865c.034-.129.066-.259.1-.388a.568.568,0,0,1,.516-.461c.07-.01.138-.035.264-.068-.2-.242-.434-.434-.42-.728a1.685,1.685,0,0,1,.361-.768c.173-.279.488-.188.789-.231-.1-.256-.3-.474-.189-.721a2.914,2.914,0,0,1,.41-.646c.18-.218.461-.06.7-.092-.018-.167-.138-.215-.21-.295a.686.686,0,0,1-.036-.977.573.573,0,0,1,.591-.193c.323.075.339.064.562-.261-.046-.073-.092-.154-.145-.231A6.552,6.552,0,0,1,14.8,31.652a7.244,7.244,0,0,1,2.175-4.991,5.57,5.57,0,0,1,3.418-1.629,5.077,5.077,0,0,1,4.764,2.047,6.306,6.306,0,0,1,1.351,3.932,7.207,7.207,0,0,1-2.025,5.22,5.7,5.7,0,0,1-3.559,1.777,5.1,5.1,0,0,1-3.9-1.042c-.046-.035-.095-.062-.138-.092-.271.172-.28.191-.16.476a.612.612,0,0,1-.032.624.667.667,0,0,1-.971.193c-.083-.054-.164-.112-.3-.2.054.289.255.5.129.733a3.952,3.952,0,0,1-.383.6c-.169.212-.444.113-.7.174.065.234.3.415.218.662-.079.231-.213.443-.315.667-.118.257-.395.222-.622.323a1.32,1.32,0,0,0,.128.141.665.665,0,0,1,.238.716c-.035.158-.076.315-.111.473a.57.57,0,0,1-.45.464A.785.785,0,0,0,13.4,43c.039.058.066.135.12.169a.687.687,0,0,1,.325.657c-.005.162,0,.323,0,.487a.593.593,0,0,1-.335.583.7.7,0,0,0-.148.152c.053.046.1.116.16.138a.746.746,0,0,1,.488.649,4.259,4.259,0,0,0,.087.477.5.5,0,0,1-.234.613,1.23,1.23,0,0,0-.146.138c.1.046.176.081.253.107a.669.669,0,0,1,.461.5c.025.1.057.2.083.3.117.452.116.452-.1.83.012.013.023.036.036.038a.9.9,0,0,1,.793.611,1.3,1.3,0,0,0,.1.2.649.649,0,0,1,.014.752.409.409,0,0,0-.019.112,1.445,1.445,0,0,0,.214.028.708.708,0,0,1,.617.3,7.49,7.49,0,0,1,.424.642.25.25,0,0,0,.224.143q.129,0,.257,0H46.732c.138,0,.281-.013.448-.022.008-.138.02-.248.021-.358V47.4q0-10.046.006-20.092a.87.87,0,0,0-.28-.675q-7.861-7.83-15.7-15.67c-.154-.153-.311-.3-.485-.471-.107.1-.192.171-.271.25l-6.593,6.522Q18.134,22.935,12.4,28.613a.557.557,0,0,1-.428.177q-5.868-.006-11.735,0c-.064,0-.128-.007-.234-.014.079-.089.129-.152.184-.209l6.557-6.478c.383-.379.385-.377.385-.912V13.359c0-.277.008-.285.294-.285h4.351c.118,0,.237-.015.429-.029a2.35,2.35,0,0,0-.238-.279c-.472-.386-.935-.784-1.43-1.142-.532-.386-1.1-.726-1.643-1.094A8.05,8.05,0,0,1,7.147,9.054a3.269,3.269,0,0,1-.783-2.182A4.037,4.037,0,0,1,8.028,3.517c.559-.427,1.15-.814,1.736-1.209A11.735,11.735,0,0,0,11.895.585c.165-.179.321-.366.511-.585a4.807,4.807,0,0,1-.146,1.372,8.448,8.448,0,0,1-.756,1.97c-.293.578-.592,1.153-.853,1.747a3.859,3.859,0,0,0-.311,1.5,1.674,1.674,0,0,0,.493,1.24c.212.219.451.411.678.613.25.222.507.433.75.664a4.289,4.289,0,0,1,1.287,2.5c.062.394.084.8.114,1.194.018.252.024.272.286.273.573,0,1.145,0,1.717,0a.556.556,0,0,0,.422-.2q2.125-2.106,4.251-4.207L28.745.359c.079-.079.166-.149.246-.221l1.433,1.48c-2.753,2.75-5.539,5.533-8.325,8.313s-5.566,5.552-8.351,8.326S8.158,23.8,5.375,26.585ZM31.505,54.8a.64.64,0,0,0-.589-.247c-.515.005-1.03,0-1.545,0a.623.623,0,0,0-.478.145.223.223,0,0,1-.262.046c-.071-.027-.144-.046-.217-.071-.933-.3-1.866-.606-2.8-.9-.489-.155-.772.092-.743.6.039.684.064,1.37.068,2.056,0,.4-.046.8-.075,1.2s.235.626.631.493c.072-.024.141-.058.211-.088l1.683-.718,1.4-.6a.63.63,0,0,0,.591.22q.757-.013,1.516,0a.7.7,0,0,0,.62-.216l.932.4c.771.328,1.539.665,2.314.983.435.179.72-.046.679-.507,0-.029-.007-.057-.01-.085-.03-.36-.065-.72-.087-1.082a11.317,11.317,0,0,1,.095-2.053.521.521,0,0,0-.725-.607c-.192.057-.381.122-.571.184ZM25.642,31.3a5.783,5.783,0,0,0-.888-3.224,4.334,4.334,0,0,0-3.778-2.151,4.511,4.511,0,0,0-3.036,1.088,6.041,6.041,0,0,0-2.219,5.4,5.205,5.205,0,0,0,1.107,2.806,4.386,4.386,0,0,0,3.505,1.755,4.289,4.289,0,0,0,2.42-.672A6.035,6.035,0,0,0,25.642,31.3ZM15.1,36.976a.41.41,0,0,0,.33.354.236.236,0,0,1,.2.2.429.429,0,0,0,.338.311c.136.042.328-.085.407-.25a.267.267,0,0,0-.083-.351c-.208-.194-.418-.386-.628-.578-.092-.084-.188-.181-.323-.1a.424.424,0,0,0-.239.414Zm-2.15,6.376a.268.268,0,0,0-.231.272c-.022.188-.04.378-.046.567a.306.306,0,0,0,.213.323c.156-.177.323-.108.492.017.243-.25.136-.551.164-.822a.244.244,0,0,0-.151-.29A.277.277,0,0,1,12.946,43.352Zm.507-.772c.261-.092.22-.351.274-.542.046-.162.184-.352-.021-.531-.153.1-.273.115-.373-.075a.142.142,0,0,0-.267.029,4.727,4.727,0,0,0-.19.743c-.012.068.053.151.082.226.284-.106.284-.106.5.149ZM14.37,39.8c-.113,0-.244.065-.33-.1-.1-.192-.239-.2-.357-.023a3.987,3.987,0,0,0-.289.521.212.212,0,0,0,.055.291c.106-.006.218-.046.281-.006s.111.16.173.258c.3-.059.328-.34.452-.536.076-.118.149-.251.016-.4ZM13,45.458c-.055.1-.129.167-.12.224a6.17,6.17,0,0,0,.16.77c.014.046.177.113.2.092.153-.135.3-.061.432.008.125-.189.143-.2.07-.432-.067-.211-.018-.487-.3-.615C13.3,45.692,13.165,45.6,13,45.458Zm.983,1.882c-.119.073-.195.152-.277.16a.678.678,0,0,1-.256-.084c-.127.162-.135.164-.107.277.046.194.1.387.161.578a.289.289,0,0,0,.287.224c.1-.3.168-.265.488-.184a1.71,1.71,0,0,0-.3-.969Zm.754,2.976c.038-.294.216-.268.43-.2.046-.323-.172-.529-.267-.77-.042-.107-.113-.2-.26-.172l-.138.21-.267-.092a.239.239,0,0,0-.046.341C14.336,49.867,14.35,50.208,14.738,50.316Zm.182-12.322c-.261.025-.261.03-.5.41a.308.308,0,0,0,0,.4c.233-.055.32.109.372.294.046,0,.082.011.1,0a1.284,1.284,0,0,0,.457-.63.148.148,0,0,0-.124-.214.339.339,0,0,1-.309-.266Zm.755,12.815c-.048.092-.085.166-.124.241l-.284-.029c-.035.2.065.487.231.539a1.325,1.325,0,0,0,.861.011c-.214-.3-.342-.61-.683-.763Z" transform="translate(0)" fill="#1875f0"/>
        <path id="Path_102" data-name="Path 102" d="M354.22,877.86a7.255,7.255,0,0,0,.313.848,1.708,1.708,0,0,0,2.071.891,2.831,2.831,0,0,0,1.588-1.2,3.284,3.284,0,0,1,2.444-1.4,7.921,7.921,0,0,1,3.182.38,14.387,14.387,0,0,1,1.724.6,4.921,4.921,0,0,1,2.268,1.985c.059.092.124.184.2.3a1.719,1.719,0,0,0,.146-.181,5.508,5.508,0,0,1,3.327-2.495,14.872,14.872,0,0,1,2.306-.554,4.888,4.888,0,0,1,2.721.26,2.94,2.94,0,0,1,1.291,1.049,3.088,3.088,0,0,0,1.352,1.153,1.93,1.93,0,0,0,1.031.172,1.83,1.83,0,0,0,1.549-1.483c.034-.119.053-.241.078-.355a6.782,6.782,0,0,1-.621,3.5A5.63,5.63,0,0,1,378.245,884a8.63,8.63,0,0,1-2.539.642,14.021,14.021,0,0,1-6.806-.969c-.452-.184-.451-.083-.873-.64-.017.006-.043.008-.049.019a1.275,1.275,0,0,1-.717.575,14.807,14.807,0,0,1-3.549.958,13.788,13.788,0,0,1-3,.1,8.215,8.215,0,0,1-3.946-1.218,5.4,5.4,0,0,1-2.444-3.71,5.228,5.228,0,0,1-.105-.735C354.207,878.6,354.22,878.183,354.22,877.86Z" transform="translate(-337.878 -836.506)" fill="#1875f0"/>
        <path id="Path_103" data-name="Path 103" d="M743.3,554.18a6.765,6.765,0,0,1-.545.735l-.788-.767c-.1.076-.184.134-.263.2a4.861,4.861,0,0,1-2.561,1.113,5.676,5.676,0,0,1-3.425-.672,6.811,6.811,0,0,1-3.078-3.632,7.215,7.215,0,0,1-.452-3.482,6.058,6.058,0,0,1,1.5-3.432,4.946,4.946,0,0,1,3.975-1.746,5.817,5.817,0,0,1,4.41,2.148,7.242,7.242,0,0,1,1.733,3.975,6.567,6.567,0,0,1-1.1,4.593c-.148.218-.146.22.037.407S743.1,553.98,743.3,554.18Zm-5.668-10.8a4.247,4.247,0,0,0-1.908.433,4.771,4.771,0,0,0-2.379,2.773,5.687,5.687,0,0,0-.171,3.239,5.9,5.9,0,0,0,2.3,3.643,4.7,4.7,0,0,0,3.34.935,4.356,4.356,0,0,0,3.416-2.27,5.4,5.4,0,0,0,.719-3.267,6.214,6.214,0,0,0-1.636-3.785A4.979,4.979,0,0,0,737.632,543.382Z" transform="translate(-698.377 -517.474)" fill="#1875f0"/>
        <path id="Path_104" data-name="Path 104" d="M546.5,483.161c-.092-.109-.184-.218-.273-.328-.041-.05-.08-.1-.114-.148a.245.245,0,0,1,.021-.068c.265-.329.261-.326.027-.679a2.184,2.184,0,0,1-.218-2.1,1.314,1.314,0,0,1,.376-.53,6.47,6.47,0,0,1,3.8-1.618,6.637,6.637,0,0,1,4.81,1.522,1.712,1.712,0,0,1,.646,1.256,2.2,2.2,0,0,1-.606,1.78l.318.425-.447.472-.461-.447a2.2,2.2,0,0,0-1.457,1.977,3.688,3.688,0,0,0,.148,1.015,30.356,30.356,0,0,0,1.416,4.043c.187.407.394.8.594,1.206a.462.462,0,0,1,.049.41.326.326,0,0,1-.29.239.313.313,0,0,1-.329-.178c-.112-.221-.214-.448-.338-.662-.092-.163-.214-.311-.323-.464a4.532,4.532,0,0,1-.415-.579,19.538,19.538,0,0,1-1.337-3.37,6.633,6.633,0,0,1-.23-1.694,1.128,1.128,0,0,1,.6-1.063.692.692,0,0,0,.238-.231,2.861,2.861,0,0,1,1.394-1.227,1.354,1.354,0,0,0,.809-1.064,2.294,2.294,0,0,0,0-.679.817.817,0,0,0-.36-.592,4.557,4.557,0,0,0-1.611-.714,8.609,8.609,0,0,0-5.064.2,6.445,6.445,0,0,0-.892.445.9.9,0,0,0-.454.78,1.676,1.676,0,0,0,.393,1.277,1.12,1.12,0,0,0,.383.283,3.145,3.145,0,0,1,1.522,1.291.642.642,0,0,0,.221.211,1.22,1.22,0,0,1,.616,1.2,7.264,7.264,0,0,1-.4,2.1c-.331.883-.677,1.76-1.024,2.637a2.685,2.685,0,0,1-.589.871,1.237,1.237,0,0,0-.206.3c-.12.238-.223.485-.341.724a.347.347,0,0,1-.435.231.361.361,0,0,1-.233-.412,1.311,1.311,0,0,1,.138-.4,18.176,18.176,0,0,0,1.263-3.154c.2-.667.4-1.331.582-2a2.508,2.508,0,0,0,.039-1.409,2.377,2.377,0,0,0-1.217-1.449c-.192-.1-.24-.089-.4.071-.08.081-.16.163-.24.244-.006.006-.017.007-.026.011Zm1,6.737.073.051a1.917,1.917,0,0,0,.215-.284c.2-.4.415-.8.581-1.209a11.687,11.687,0,0,0,.962-3.279,1.914,1.914,0,0,0-.041-.876c-.052-.138-.1-.292-.3-.34a.566.566,0,0,0-.037.185,5.817,5.817,0,0,1-.179,2.151,22.859,22.859,0,0,1-1.023,2.941C547.659,489.455,547.581,489.677,547.5,489.9Zm6.276-.316c.1-.132.009-.243-.031-.349-.265-.7-.545-1.4-.8-2.108a7.452,7.452,0,0,1-.454-1.881c-.03-.35-.024-.7-.031-1.054,0-.085.02-.176-.127-.211a.848.848,0,0,0-.258.678,7.673,7.673,0,0,0,.083.88,6.965,6.965,0,0,0,.481,1.7c.3.711.6,1.417.908,2.124C553.59,489.456,553.63,489.571,553.775,489.582Z" transform="translate(-520.597 -455.638)" fill="#1875f0"/>
        <path id="Path_105" data-name="Path 105" d="M355.913,575.209a5.744,5.744,0,0,1-1.505,4.081,4.375,4.375,0,0,1-3.685,1.491,3.963,3.963,0,0,1-3.019-1.747,5.258,5.258,0,0,1-.937-3.877,5.331,5.331,0,0,1,2.268-3.82,4.1,4.1,0,0,1,4.459-.36,4.859,4.859,0,0,1,2.42,4.233Zm-.944,2.6a2.452,2.452,0,0,0,.153-.292,5.7,5.7,0,0,0-.128-4.372,3.4,3.4,0,0,0-2.06-1.907,4.461,4.461,0,0,0-3.053.034,3.13,3.13,0,0,0-1.456.974,5.761,5.761,0,0,0-1.107,5.246,1.613,1.613,0,0,0,.115.252c.185-.095.135-.231.123-.342a4.475,4.475,0,0,1,.6-2.718,2.106,2.106,0,0,1,.155-.211,3.734,3.734,0,0,0,3.034,1.257,4,4,0,0,0,3.035-1.356c.116.267.227.489.31.72a4.356,4.356,0,0,1,.192,2.334c-.022.111-.092.24.085.381Zm-3.767-1.77a3.5,3.5,0,0,0-2.179.734,1.952,1.952,0,0,0-.8,1.43,1.752,1.752,0,0,0,.76,1.6,3.3,3.3,0,0,0,2.705.6,3.217,3.217,0,0,0,1.813-.961,1.723,1.723,0,0,0-.121-2.6A3.2,3.2,0,0,0,351.2,576.039Z" transform="translate(-330.722 -544.17)" fill="#1875f0"/>
        <path id="Path_106" data-name="Path 106" d="M763.755,579.81a4.39,4.39,0,0,1-2.879-1.36,5.716,5.716,0,0,1-1.716-3.646,5.067,5.067,0,0,1,1.112-3.794,3.781,3.781,0,0,1,2.56-1.426,4.5,4.5,0,0,1,4.059,1.6,5.706,5.706,0,0,1,1.43,3.244,5.058,5.058,0,0,1-1.281,4.1A4.141,4.141,0,0,1,763.755,579.81Zm3.754-2.966c.2.035.22-.108.237-.2a9,9,0,0,0,.179-1.241,6.179,6.179,0,0,0-.759-3.13,4.3,4.3,0,0,0-5.657-1.86,2.616,2.616,0,0,0-1.17,1.058,5.509,5.509,0,0,0-.725,3.793,10.312,10.312,0,0,0,.369,1.286c.028.092.055.213.235.178a2.446,2.446,0,0,0-.029-.277,4.406,4.406,0,0,1,.244-2.633c.037-.092.089-.179.143-.289.07.063.114.1.151.138a3.09,3.09,0,0,0,.941.688,4.407,4.407,0,0,0,2.922.362,3.055,3.055,0,0,0,1.945-1.158.408.408,0,0,1,.1-.07,4.606,4.606,0,0,1,.749,1.6A6.518,6.518,0,0,1,767.509,576.845Zm-3.195,2.7a2.982,2.982,0,0,0,1.808-.81,1.614,1.614,0,0,0,.594-1.424,2.021,2.021,0,0,0-.733-1.411,3.556,3.556,0,0,0-4.21-.224,1.839,1.839,0,0,0-.207,2.9A3.729,3.729,0,0,0,764.314,579.547Z" transform="translate(-724.122 -543.281)" fill="#1875f0"/>
      </g>
    </g>
  </g>
</svg>
